<?xml version="1.0" encoding="utf-8"?>
<!-- Generator: Adobe Illustrator 16.0.0, SVG Export Plug-In . SVG Version: 6.00 Build 0)  -->
<svg version="1.1" xmlns="http://www.w3.org/2000/svg" xmlns:xlink="http://www.w3.org/1999/xlink" x="0px" y="0px"
	 width="142.108px" height="123.308px" viewBox="0 0 142.108 123.308" enable-background="new 0 0 142.108 123.308"
	 xml:space="preserve">
<g id="Layer_2" display="none">
	<rect x="-30.445" y="-7.147" display="inline" width="202" height="203"/>
</g>
<g id="Layer_4">
	<g>
		<path fill="#FFFFFF" d="M5.476,116.439c-0.294-0.113-0.718-0.17-1.271-0.17c-0.718,0-1.317,0.17-1.8,0.508
			c-0.481,0.338-0.723,0.8-0.723,1.385v2.676H0v-5.25h1.682v1.082h0.041c0.239-0.369,0.605-0.657,1.097-0.864
			c0.492-0.206,1.042-0.31,1.651-0.31c0.438,0,0.772,0.023,1.005,0.071V116.439z"/>
		<path fill="#FFFFFF" d="M15.74,118.422H8.326c0.027,0.585,0.342,1.036,0.943,1.354c0.602,0.318,1.429,0.478,2.481,0.478
			c1.183,0,2.27-0.195,3.261-0.585v0.79c-0.923,0.334-2.143,0.502-3.661,0.502c-1.483,0-2.649-0.238-3.497-0.715
			s-1.271-1.148-1.271-2.013c0-0.817,0.463-1.482,1.39-1.997c0.926-0.514,2.076-0.771,3.45-0.771s2.437,0.223,3.189,0.666
			c0.752,0.445,1.128,1.062,1.128,1.852V118.422z M14.017,117.71c-0.007-0.486-0.241-0.863-0.703-1.134
			c-0.461-0.27-1.102-0.405-1.922-0.405c-0.793,0-1.466,0.143-2.02,0.426c-0.554,0.284-0.896,0.654-1.025,1.113H14.017z"/>
		<path fill="#FFFFFF" d="M25.799,120.837h-1.682v-0.82h-0.041c-0.731,0.629-1.808,0.943-3.23,0.943
			c-1.046,0-1.865-0.139-2.456-0.415c-0.591-0.277-0.887-0.645-0.887-1.103c0-0.98,1.155-1.552,3.466-1.713l3.148-0.22
			c0-0.893-0.721-1.339-2.164-1.339c-1.265,0-2.406,0.216-3.425,0.646v-0.861c1.032-0.328,2.222-0.492,3.568-0.492
			c2.468,0,3.702,0.652,3.702,1.959V120.837z M24.117,118.181l-2.533,0.175c-0.779,0.055-1.367,0.151-1.764,0.29
			s-0.595,0.383-0.595,0.735c0,0.257,0.183,0.466,0.549,0.628c0.365,0.162,0.853,0.244,1.461,0.244c0.834,0,1.522-0.146,2.066-0.439
			c0.543-0.291,0.815-0.662,0.815-1.109V118.181z"/>
		<path fill="#FFFFFF" d="M37.929,120.837h-1.682v-0.893h-0.041c-0.779,0.678-1.982,1.016-3.609,1.016
			c-1.319,0-2.374-0.234-3.163-0.705c-0.79-0.47-1.185-1.109-1.185-1.92c0-0.868,0.438-1.563,1.313-2.087
			c0.875-0.522,2.041-0.784,3.497-0.784c1.442,0,2.492,0.283,3.148,0.852h0.041v-3.251h1.682V120.837z M36.248,118.463v-0.774
			c0-0.424-0.28-0.782-0.841-1.076s-1.271-0.441-2.133-0.441c-1.025,0-1.832,0.188-2.42,0.564s-0.882,0.896-0.882,1.559
			c0,0.605,0.282,1.082,0.846,1.434c0.564,0.35,1.321,0.525,2.271,0.525c0.937,0,1.697-0.17,2.281-0.508
			C35.956,119.407,36.248,118.98,36.248,118.463z"/>
		<path fill="#FFFFFF" d="M42.195,114.254c-0.301,0-0.557-0.052-0.769-0.153c-0.212-0.104-0.318-0.232-0.318-0.391
			c0-0.156,0.106-0.287,0.318-0.392s0.468-0.156,0.769-0.156c0.308,0,0.569,0.052,0.784,0.156c0.216,0.104,0.323,0.235,0.323,0.392
			c0,0.15-0.107,0.279-0.323,0.385C42.764,114.202,42.502,114.254,42.195,114.254z M43.015,120.837h-1.682v-5.25h1.682V120.837z"/>
		<path fill="#FFFFFF" d="M55.135,120.837h-1.682v-2.994c0-1.114-0.813-1.672-2.44-1.672c-0.841,0-1.537,0.158-2.087,0.475
			s-0.825,0.715-0.825,1.197v2.994h-1.682v-5.25h1.682v0.871h0.041c0.793-0.662,1.941-0.994,3.445-0.994
			c1.148,0,2.027,0.186,2.635,0.557s0.913,0.906,0.913,1.607V120.837z"/>
		<path fill="#FFFFFF" d="M67.266,120.417c0,1.928-1.846,2.891-5.537,2.891c-1.299,0-2.434-0.123-3.404-0.369v-0.84
			c1.183,0.328,2.311,0.492,3.384,0.492c2.584,0,3.876-0.688,3.876-2.062v-0.574h-0.041c-0.8,0.67-2.003,1.005-3.609,1.005
			c-1.306,0-2.357-0.233-3.153-0.699c-0.796-0.467-1.194-1.094-1.194-1.88c0-0.892,0.429-1.601,1.287-2.128
			c0.857-0.525,2.032-0.789,3.522-0.789c1.415,0,2.464,0.283,3.148,0.852h0.041v-0.729h1.682V120.417z M65.584,118.463v-0.774
			c0-0.416-0.282-0.773-0.846-1.071c-0.564-0.297-1.267-0.446-2.107-0.446c-1.039,0-1.853,0.189-2.44,0.566
			c-0.588,0.379-0.882,0.907-0.882,1.588c0,0.584,0.282,1.051,0.846,1.402c0.564,0.35,1.311,0.525,2.241,0.525
			c0.943,0,1.71-0.168,2.302-0.503C65.288,119.416,65.584,118.987,65.584,118.463z"/>
		<path fill="#FFFFFF" d="M77.284,114.254c-0.301,0-0.558-0.052-0.769-0.153c-0.213-0.104-0.318-0.232-0.318-0.391
			c0-0.156,0.105-0.287,0.318-0.392c0.211-0.104,0.468-0.156,0.769-0.156c0.308,0,0.569,0.052,0.784,0.156
			c0.216,0.104,0.323,0.235,0.323,0.392c0,0.15-0.107,0.279-0.323,0.385C77.854,114.202,77.592,114.254,77.284,114.254z
			 M78.104,120.837h-1.682v-5.25h1.682V120.837z"/>
		<path fill="#FFFFFF" d="M80.873,120.648v-0.902c0.916,0.338,1.924,0.508,3.025,0.508c1.477,0,2.215-0.246,2.215-0.738
			c0-0.141-0.063-0.26-0.19-0.357c-0.126-0.097-0.297-0.184-0.513-0.258c-0.215-0.076-0.468-0.143-0.759-0.203
			c-0.29-0.06-0.604-0.122-0.938-0.188c-0.465-0.092-0.873-0.186-1.225-0.279c-0.353-0.094-0.646-0.199-0.882-0.317
			c-0.236-0.118-0.414-0.252-0.533-0.402c-0.12-0.15-0.18-0.327-0.18-0.528c0-0.246,0.112-0.464,0.339-0.654
			c0.225-0.189,0.525-0.348,0.902-0.477c0.375-0.128,0.805-0.225,1.286-0.289c0.482-0.064,0.979-0.098,1.492-0.098
			c0.909,0,1.723,0.078,2.44,0.236v0.851c-0.772-0.253-1.661-0.38-2.666-0.38c-0.314,0-0.599,0.019-0.852,0.055
			c-0.253,0.035-0.47,0.086-0.65,0.15c-0.182,0.065-0.321,0.143-0.421,0.234c-0.099,0.09-0.148,0.189-0.148,0.299
			c0,0.137,0.05,0.252,0.148,0.344c0.1,0.093,0.244,0.175,0.437,0.246c0.19,0.072,0.423,0.137,0.697,0.195
			c0.272,0.059,0.584,0.121,0.933,0.189c0.465,0.089,0.882,0.18,1.251,0.274c0.369,0.094,0.684,0.2,0.943,0.317
			c0.26,0.118,0.46,0.254,0.6,0.408c0.141,0.153,0.211,0.336,0.211,0.549c0,0.26-0.115,0.484-0.344,0.676
			c-0.229,0.191-0.535,0.352-0.918,0.478s-0.824,0.22-1.322,0.282c-0.5,0.061-1.022,0.092-1.569,0.092
			C82.603,120.96,81.666,120.856,80.873,120.648z"/>
		<path fill="#FFFFFF" d="M105.133,120.417c0,1.928-1.846,2.891-5.537,2.891c-1.299,0-2.434-0.123-3.404-0.369v-0.84
			c1.183,0.328,2.311,0.492,3.384,0.492c2.584,0,3.876-0.688,3.876-2.062v-0.574h-0.041c-0.8,0.67-2.003,1.005-3.609,1.005
			c-1.306,0-2.356-0.233-3.153-0.699c-0.796-0.467-1.194-1.094-1.194-1.88c0-0.892,0.429-1.601,1.287-2.128
			c0.857-0.525,2.031-0.789,3.521-0.789c1.416,0,2.465,0.283,3.148,0.852h0.041v-0.729h1.682V120.417z M103.451,118.463v-0.774
			c0-0.416-0.282-0.773-0.846-1.071c-0.564-0.297-1.267-0.446-2.107-0.446c-1.039,0-1.853,0.189-2.44,0.566
			c-0.588,0.379-0.882,0.907-0.882,1.588c0,0.584,0.282,1.051,0.846,1.402c0.564,0.35,1.311,0.525,2.24,0.525
			c0.943,0,1.711-0.168,2.303-0.503C103.155,119.416,103.451,118.987,103.451,118.463z"/>
		<path fill="#FFFFFF" d="M112.926,120.96c-1.552,0-2.791-0.245-3.717-0.736c-0.927-0.49-1.39-1.141-1.39-1.95
			c0-0.882,0.482-1.57,1.445-2.066c0.965-0.495,2.267-0.743,3.907-0.743c1.565,0,2.787,0.241,3.666,0.723
			c0.878,0.482,1.317,1.15,1.317,2.005c0,0.837-0.474,1.509-1.42,2.013C115.788,120.708,114.519,120.96,112.926,120.96z
			 M113.049,116.171c-1.08,0-1.935,0.184-2.563,0.552c-0.629,0.367-0.943,0.874-0.943,1.521c0,0.621,0.318,1.112,0.953,1.471
			c0.637,0.359,1.487,0.539,2.554,0.539c1.087,0,1.923-0.176,2.507-0.528c0.585-0.353,0.877-0.853,0.877-1.503
			c0-0.656-0.292-1.162-0.877-1.518C114.972,116.349,114.136,116.171,113.049,116.171z"/>
		<path fill="#FFFFFF" d="M125.23,120.96c-1.552,0-2.791-0.245-3.717-0.736c-0.927-0.49-1.39-1.141-1.39-1.95
			c0-0.882,0.482-1.57,1.445-2.066c0.965-0.495,2.267-0.743,3.907-0.743c1.565,0,2.787,0.241,3.666,0.723
			c0.878,0.482,1.317,1.15,1.317,2.005c0,0.837-0.474,1.509-1.42,2.013C128.093,120.708,126.823,120.96,125.23,120.96z
			 M125.354,116.171c-1.08,0-1.935,0.184-2.563,0.552c-0.629,0.367-0.943,0.874-0.943,1.521c0,0.621,0.318,1.112,0.953,1.471
			c0.637,0.359,1.487,0.539,2.554,0.539c1.087,0,1.923-0.176,2.507-0.528c0.585-0.353,0.877-0.853,0.877-1.503
			c0-0.656-0.292-1.162-0.877-1.518C127.276,116.349,126.44,116.171,125.354,116.171z"/>
		<path fill="#FFFFFF" d="M142.108,120.837h-1.682v-0.893h-0.041c-0.779,0.678-1.982,1.016-3.609,1.016
			c-1.319,0-2.374-0.234-3.163-0.705c-0.79-0.47-1.185-1.109-1.185-1.92c0-0.868,0.438-1.563,1.313-2.087
			c0.875-0.522,2.041-0.784,3.496-0.784c1.442,0,2.492,0.283,3.148,0.852h0.041v-3.251h1.682V120.837z M140.427,118.463v-0.774
			c0-0.424-0.28-0.782-0.841-1.076s-1.271-0.441-2.133-0.441c-1.025,0-1.832,0.188-2.42,0.564s-0.882,0.896-0.882,1.559
			c0,0.605,0.282,1.082,0.846,1.434c0.564,0.35,1.321,0.525,2.271,0.525c0.937,0,1.697-0.17,2.281-0.508
			C140.135,119.407,140.427,118.98,140.427,118.463z"/>
	</g>
</g>
<g id="Layer_3">
	<g>
		<path fill="#FFFFFF" d="M48.296,100.302c0.459-0.445,0.878-0.834,1.259-1.17c0.377-0.333,0.76-0.635,1.146-0.899
			c0.387-0.265,0.794-0.521,1.225-0.773c0.432-0.249,0.936-0.478,1.515-0.685v-0.059c-1.083-0.18-2.061-0.434-2.929-0.764
			c-0.869-0.33-1.61-0.731-2.227-1.199c-0.615-0.465-1.092-0.999-1.427-1.601c-0.332-0.6-0.501-1.259-0.501-1.976
			c0-0.916,0.267-1.716,0.791-2.402c0.527-0.685,1.258-1.257,2.192-1.714c0.938-0.458,2.037-0.802,3.298-1.029
			c1.261-0.226,2.643-0.34,4.141-0.34h10.51v20.319h-5.276v-8.246h-2.138c-0.667,0-1.271,0.053-1.805,0.156
			c-0.533,0.104-1.027,0.27-1.48,0.496c-0.452,0.227-0.896,0.516-1.337,0.873c-0.437,0.354-0.887,0.781-1.345,1.28l-5.102,5.44
			h-6.189L48.296,100.302z M57.558,88.428c-1.811,0-3.198,0.274-4.164,0.821c-0.965,0.547-1.447,1.309-1.447,2.28
			c0,0.54,0.142,1.025,0.423,1.46c0.283,0.436,0.676,0.805,1.182,1.104c0.504,0.304,1.102,0.534,1.792,0.695
			c0.69,0.162,1.445,0.242,2.26,0.242h4.409v-6.603H57.558z"/>
		<path fill="#FFFFFF" d="M95.365,104.625c-3.324,1.151-7.028,1.728-11.106,1.728c-4.724,0-8.542-0.937-11.469-2.807
			c-2.927-1.869-4.39-4.346-4.39-7.425c0-3.145,1.603-5.726,4.803-7.744c3.197-2.017,7.26-3.025,12.189-3.025
			c3.548,0,6.534,0.331,8.953,0.992v3.471c-2.449-1.039-5.369-1.559-8.754-1.559c-3.396,0-6.187,0.714-8.358,2.14
			c-2.178,1.426-3.267,3.274-3.267,5.54c0,2.334,0.936,4.168,2.811,5.508c1.87,1.336,4.404,2.002,7.613,2.002
			c2.195,0,4.097-0.269,5.702-0.807v-4.833h-6.727v-2.833h11.999V104.625z"/>
	</g>
</g>
<g id="Layer_1">
	<g>
		<g>
			<g>
				<path fill-rule="evenodd" clip-rule="evenodd" fill="#FFFFFF" d="M38.88,0.351l25.547,15.382
					c1.528,0.919,2.778,3.374,2.778,5.455v50.485c0,2.081-1.25,3.031-2.778,2.111L38.88,58.404c-1.528-0.92-2.777-3.375-2.777-5.455
					V2.463C36.103,0.381,37.352-0.569,38.88,0.351z"/>
				<path fill-rule="evenodd" clip-rule="evenodd" fill="#FFFFFF" d="M102.049,0.694L76.5,16.076
					c-1.527,0.919-2.777,3.374-2.777,5.456v50.485c0,2.08,1.25,3.031,2.777,2.111l25.549-15.381c1.527-0.92,2.777-3.375,2.777-5.456
					V2.806C104.826,0.724,103.576-0.226,102.049,0.694z"/>
			</g>
			<path fill-rule="evenodd" clip-rule="evenodd" fill="#FFFFFF" d="M32.05,8.94v44.008c0,3.331,1.848,7.187,4.739,8.928
				l21.324,12.838L29.788,64.72c-1.681-0.594-2.777-3.375-2.777-5.456V8.779c0-2.106,1.858-2.548,3.139-2.231
				C31.389,6.855,32.05,7.871,32.05,8.94z"/>
			<path fill-rule="evenodd" clip-rule="evenodd" fill="#FFFFFF" d="M22.958,17.775v41.489c0,3.33,1.549,7.825,4.739,8.928
				l22.366,7.728l-23.851-4.202c-4.373-0.77-9.099-1.535-9.099-7.372v-47.6C17.113,9.941,22.958,8.584,22.958,17.775z"/>
			<path fill-rule="evenodd" clip-rule="evenodd" fill="#FFFFFF" d="M108.707,8.94v44.008c0,3.331-1.848,7.187-4.74,8.928
				L82.644,74.713l28.326-9.993c1.681-0.594,2.776-3.375,2.776-5.456V8.779c0-2.106-1.858-2.548-3.139-2.231
				C109.369,6.855,108.707,7.871,108.707,8.94z"/>
			<path fill-rule="evenodd" clip-rule="evenodd" fill="#FFFFFF" d="M117.799,17.775v41.489c0,3.33-1.549,7.825-4.74,8.928
				l-22.365,7.728l23.852-4.202c4.372-0.77,9.098-1.535,9.098-7.372v-47.6C123.643,9.941,117.799,8.584,117.799,17.775z"/>
		</g>
		<path fill-rule="evenodd" clip-rule="evenodd" fill="#50412F" d="M40.352,12.805c-0.286-0.173-0.377-0.546-0.204-0.831
			c0.172-0.285,0.545-0.377,0.83-0.204l21.955,13.322c0.285,0.173,0.377,0.545,0.204,0.831c-0.173,0.286-0.545,0.377-0.831,0.204
			L40.352,12.805L40.352,12.805z M99.307,12.805c0.287-0.173,0.377-0.546,0.204-0.831s-0.545-0.377-0.831-0.204L76.726,25.092
			c-0.285,0.173-0.378,0.545-0.204,0.831s0.545,0.377,0.832,0.204L99.307,12.805L99.307,12.805z M99.307,23.803L77.354,37.125
			c-0.287,0.173-0.658,0.082-0.832-0.204c-0.174-0.285-0.081-0.657,0.204-0.83L98.68,22.768c0.286-0.172,0.658-0.081,0.831,0.204
			C99.684,23.258,99.594,23.63,99.307,23.803L99.307,23.803z M99.307,34.801c0.287-0.173,0.377-0.545,0.204-0.83
			c-0.173-0.286-0.545-0.378-0.831-0.205L76.726,47.088c-0.285,0.173-0.378,0.546-0.204,0.832c0.174,0.285,0.545,0.376,0.832,0.203
			L99.307,34.801L99.307,34.801z M99.307,45.8L77.354,59.122c-0.287,0.174-0.658,0.082-0.832-0.204
			c-0.174-0.285-0.081-0.657,0.204-0.83L98.68,44.765c0.286-0.173,0.658-0.082,0.831,0.204C99.684,45.254,99.594,45.626,99.307,45.8
			L99.307,45.8z M40.352,45.8c-0.286-0.174-0.377-0.546-0.204-0.831c0.172-0.286,0.545-0.377,0.83-0.204l21.955,13.322
			c0.285,0.173,0.377,0.545,0.204,0.83c-0.173,0.286-0.545,0.378-0.831,0.204L40.352,45.8L40.352,45.8z M40.352,34.801
			l21.955,13.322c0.286,0.173,0.658,0.082,0.831-0.203c0.173-0.286,0.082-0.659-0.204-0.832L40.979,33.766
			c-0.285-0.173-0.658-0.081-0.83,0.205C39.975,34.256,40.066,34.628,40.352,34.801L40.352,34.801z M40.352,23.803l21.955,13.322
			c0.286,0.173,0.658,0.082,0.831-0.204c0.173-0.285,0.082-0.657-0.204-0.83L40.979,22.768c-0.285-0.172-0.658-0.081-0.83,0.204
			C39.975,23.258,40.066,23.63,40.352,23.803z"/>
	</g>
</g>
</svg>
