<?xml version="1.0" encoding="utf-8"?>
<!-- Generator: Adobe Illustrator 16.0.0, SVG Export Plug-In . SVG Version: 6.00 Build 0)  -->
<!DOCTYPE svg PUBLIC "-//W3C//DTD SVG 1.1//EN" "http://www.w3.org/Graphics/SVG/1.1/DTD/svg11.dtd">
<svg version="1.1" xmlns="http://www.w3.org/2000/svg" xmlns:xlink="http://www.w3.org/1999/xlink" x="0px" y="0px" width="712px"
	 height="105px" viewBox="0 0 712 105" enable-background="new 0 0 712 105" xml:space="preserve">
<g id="Layer_2" display="none">
	<rect display="inline" width="712" height="203"/>
</g>
<g id="Layer_4">
	<g>
		<path fill="#FFFFFF" d="M205.841,70.444c-0.949-0.367-2.322-0.55-4.118-0.55c-2.324,0-4.267,0.55-5.829,1.645
			c-1.563,1.096-2.342,2.592-2.342,4.486v8.67h-5.449V67.687h5.449v3.505h0.134c0.771-1.195,1.958-2.129,3.553-2.8
			c1.594-0.668,3.377-1.004,5.351-1.004c1.417,0,2.5,0.077,3.252,0.231V70.444z"/>
		<path fill="#FFFFFF" d="M239.099,76.871H215.08c0.09,1.895,1.107,3.357,3.057,4.386c1.949,1.031,4.627,1.547,8.037,1.547
			c3.835,0,7.353-0.633,10.567-1.896v2.56c-2.993,1.083-6.945,1.626-11.861,1.626c-4.806,0-8.585-0.771-11.331-2.314
			c-2.746-1.546-4.12-3.722-4.12-6.521c0-2.649,1.501-4.805,4.507-6.471c2.999-1.665,6.726-2.5,11.175-2.5
			c4.456,0,7.897,0.721,10.334,2.157c2.437,1.443,3.654,3.439,3.654,5.999V76.871z M233.518,74.564
			c-0.022-1.576-0.782-2.797-2.274-3.674c-1.494-0.873-3.574-1.313-6.231-1.313c-2.568,0-4.748,0.462-6.546,1.38
			c-1.792,0.921-2.899,2.119-3.322,3.606H233.518z"/>
		<path fill="#FFFFFF" d="M271.692,84.695h-5.449v-2.658h-0.132c-2.373,2.039-5.861,3.057-10.468,3.057
			c-3.39,0-6.044-0.448-7.958-1.345c-1.914-0.898-2.872-2.088-2.872-3.571c0-3.177,3.742-5.027,11.229-5.55l10.201-0.712
			c0-2.892-2.338-4.338-7.013-4.338c-4.097,0-7.796,0.699-11.095,2.095v-2.791c3.343-1.063,7.198-1.595,11.561-1.595
			c7.997,0,11.996,2.113,11.996,6.348V84.695z M266.243,76.089l-8.208,0.567c-2.523,0.176-4.43,0.49-5.714,0.938
			c-1.285,0.45-1.927,1.241-1.927,2.384c0,0.832,0.592,1.509,1.778,2.034c1.184,0.525,2.762,0.791,4.732,0.791
			c2.703,0,4.935-0.475,6.695-1.424c1.76-0.942,2.643-2.145,2.643-3.595V76.089z"/>
		<path fill="#FFFFFF" d="M310.993,84.695h-5.449v-2.892h-0.134c-2.524,2.195-6.423,3.29-11.692,3.29
			c-4.275,0-7.692-0.759-10.25-2.283c-2.56-1.522-3.838-3.595-3.838-6.221c0-2.813,1.417-5.066,4.253-6.763
			c2.835-1.692,6.609-2.54,11.33-2.54c4.671,0,8.072,0.918,10.197,2.758h0.134V59.513h5.449V84.695z M305.544,77.005v-2.511
			c0-1.373-0.909-2.534-2.725-3.485c-1.815-0.953-4.118-1.431-6.91-1.431c-3.322,0-5.936,0.609-7.84,1.828
			c-1.905,1.218-2.858,2.901-2.858,5.05c0,1.962,0.914,3.507,2.741,4.646c1.828,1.133,4.28,1.702,7.359,1.702
			c3.034,0,5.499-0.551,7.392-1.646C304.599,80.06,305.544,78.678,305.544,77.005z"/>
		<path fill="#FFFFFF" d="M324.813,63.367c-0.975,0-1.808-0.169-2.491-0.497c-0.689-0.336-1.03-0.753-1.03-1.266
			c0-0.507,0.341-0.93,1.03-1.27c0.684-0.337,1.517-0.506,2.491-0.506c0.996,0,1.844,0.169,2.54,0.506
			c0.699,0.34,1.047,0.763,1.047,1.27c0,0.486-0.348,0.905-1.047,1.246C326.657,63.195,325.81,63.367,324.813,63.367z
			 M327.471,84.695h-5.449V67.687h5.449V84.695z"/>
		<path fill="#FFFFFF" d="M366.74,84.695h-5.449v-9.7c0-3.61-2.635-5.417-7.906-5.417c-2.725,0-4.977,0.513-6.763,1.538
			c-1.784,1.024-2.674,2.314-2.674,3.879v9.7h-5.447V67.687h5.447v2.821h0.134c2.57-2.145,6.29-3.221,11.162-3.221
			c3.722,0,6.565,0.602,8.541,1.804c1.968,1.202,2.955,2.936,2.955,5.208V84.695z"/>
		<path fill="#FFFFFF" d="M406.043,83.334c0,6.248-5.979,9.366-17.939,9.366c-4.209,0-7.884-0.397-11.029-1.195v-2.722
			c3.829,1.063,7.485,1.595,10.96,1.595c8.373,0,12.562-2.228,12.562-6.68v-1.859h-0.134c-2.594,2.171-6.491,3.255-11.694,3.255
			c-4.232,0-7.638-0.756-10.22-2.266c-2.579-1.512-3.865-3.544-3.865-6.091c0-2.888,1.385-5.186,4.169-6.895
			c2.779-1.701,6.581-2.556,11.41-2.556c4.584,0,7.985,0.918,10.2,2.758h0.134v-2.358h5.447V83.334z M400.596,77.005v-2.511
			c0-1.348-0.917-2.505-2.74-3.47c-1.828-0.963-4.106-1.446-6.827-1.446c-3.368,0-6.007,0.613-7.91,1.835
			c-1.905,1.227-2.854,2.938-2.854,5.145c0,1.892,0.91,3.405,2.74,4.544c1.828,1.133,4.245,1.702,7.258,1.702
			c3.057,0,5.544-0.545,7.46-1.63C399.635,80.09,400.596,78.699,400.596,77.005z"/>
		<path fill="#FFFFFF" d="M438.501,63.367c-0.976,0-1.803-0.169-2.487-0.497c-0.688-0.336-1.031-0.753-1.031-1.266
			c0-0.507,0.343-0.93,1.031-1.27c0.685-0.337,1.512-0.506,2.487-0.506c1.001,0,1.848,0.169,2.544,0.506
			c0.696,0.34,1.044,0.763,1.044,1.27c0,0.486-0.348,0.905-1.044,1.246C440.349,63.195,439.502,63.367,438.501,63.367z
			 M441.159,84.695h-5.449V67.687h5.449V84.695z"/>
		<path fill="#FFFFFF" d="M450.133,84.081v-2.923c2.967,1.095,6.233,1.646,9.802,1.646c4.784,0,7.175-0.798,7.175-2.393
			c0-0.455-0.207-0.842-0.618-1.158c-0.406-0.313-0.964-0.595-1.659-0.835c-0.696-0.246-1.52-0.463-2.461-0.657
			c-0.938-0.193-1.955-0.396-3.038-0.608c-1.506-0.297-2.828-0.602-3.967-0.905c-1.146-0.303-2.096-0.646-2.86-1.028
			c-0.767-0.382-1.343-0.815-1.728-1.303c-0.387-0.487-0.582-1.06-0.582-1.712c0-0.798,0.365-1.503,1.101-2.12
			c0.728-0.613,1.701-1.127,2.923-1.543c1.215-0.415,2.606-0.729,4.164-0.938c1.563-0.209,3.177-0.316,4.834-0.316
			c2.95,0,5.583,0.253,7.91,0.765v2.757c-2.505-0.819-5.384-1.23-8.638-1.23c-1.018,0-1.942,0.06-2.758,0.177
			c-0.823,0.114-1.526,0.278-2.107,0.487c-0.589,0.213-1.045,0.462-1.368,0.76c-0.316,0.291-0.479,0.613-0.479,0.968
			c0,0.443,0.163,0.816,0.479,1.113c0.323,0.301,0.791,0.567,1.419,0.798c0.613,0.233,1.365,0.443,2.259,0.633
			c0.879,0.189,1.892,0.392,3.018,0.613c1.507,0.288,2.86,0.582,4.058,0.89c1.195,0.304,2.215,0.648,3.057,1.028
			c0.84,0.383,1.487,0.822,1.942,1.322c0.455,0.497,0.684,1.09,0.684,1.778c0,0.842-0.374,1.57-1.114,2.19
			c-0.747,0.619-1.733,1.139-2.975,1.547c-1.24,0.408-2.67,0.712-4.283,0.914c-1.621,0.197-3.317,0.297-5.089,0.297
			C455.733,85.094,452.701,84.757,450.133,84.081z"/>
		<path fill="#FFFFFF" d="M528.733,83.334c0,6.248-5.98,9.366-17.94,9.366c-4.208,0-7.884-0.397-11.03-1.195v-2.722
			c3.829,1.063,7.486,1.595,10.962,1.595c8.371,0,12.562-2.228,12.562-6.68v-1.859h-0.134c-2.595,2.171-6.493,3.255-11.694,3.255
			c-4.233,0-7.638-0.756-10.221-2.266c-2.575-1.512-3.865-3.544-3.865-6.091c0-2.888,1.386-5.186,4.17-6.895
			c2.777-1.701,6.581-2.556,11.41-2.556c4.588,0,7.985,0.918,10.2,2.758h0.134v-2.358h5.447V83.334z M523.286,77.005v-2.511
			c0-1.348-0.918-2.505-2.74-3.47c-1.83-0.963-4.108-1.446-6.829-1.446c-3.366,0-6.005,0.613-7.91,1.835
			c-1.904,1.227-2.854,2.938-2.854,5.145c0,1.892,0.911,3.405,2.74,4.544c1.828,1.133,4.245,1.702,7.259,1.702
			c3.057,0,5.542-0.545,7.46-1.63C522.322,80.09,523.286,78.699,523.286,77.005z"/>
		<path fill="#FFFFFF" d="M553.982,85.094c-5.03,0-9.042-0.794-12.043-2.385c-3.006-1.59-4.505-3.695-4.505-6.319
			c0-2.856,1.563-5.088,4.683-6.694c3.127-1.604,7.348-2.408,12.663-2.408c5.068,0,9.03,0.78,11.878,2.342
			c2.841,1.563,4.265,3.727,4.265,6.495c0,2.712-1.531,4.889-4.601,6.521S559.14,85.094,553.982,85.094z M554.382,69.578
			c-3.5,0-6.272,0.594-8.31,1.787c-2.037,1.19-3.057,2.832-3.057,4.928c0,2.011,1.032,3.604,3.089,4.764
			c2.063,1.165,4.821,1.747,8.277,1.747c3.519,0,6.226-0.569,8.119-1.712c1.898-1.143,2.841-2.762,2.841-4.869
			c0-2.127-0.942-3.766-2.841-4.917C560.607,70.154,557.9,69.578,554.382,69.578z"/>
		<path fill="#FFFFFF" d="M593.85,85.094c-5.03,0-9.042-0.794-12.043-2.385c-3.006-1.59-4.505-3.695-4.505-6.319
			c0-2.856,1.563-5.088,4.683-6.694c3.127-1.604,7.348-2.408,12.663-2.408c5.068,0,9.03,0.78,11.878,2.342
			c2.841,1.563,4.265,3.727,4.265,6.495c0,2.712-1.531,4.889-4.601,6.521S599.007,85.094,593.85,85.094z M594.249,69.578
			c-3.5,0-6.272,0.594-8.31,1.787c-2.037,1.19-3.057,2.832-3.057,4.928c0,2.011,1.032,3.604,3.089,4.764
			c2.063,1.165,4.821,1.747,8.277,1.747c3.519,0,6.226-0.569,8.119-1.712c1.898-1.143,2.841-2.762,2.841-4.869
			c0-2.127-0.942-3.766-2.841-4.917C600.475,70.154,597.768,69.578,594.249,69.578z"/>
		<path fill="#FFFFFF" d="M648.532,84.695h-5.449v-2.892h-0.132c-2.526,2.195-6.424,3.29-11.695,3.29
			c-4.271,0-7.688-0.759-10.246-2.283c-2.563-1.522-3.841-3.595-3.841-6.221c0-2.813,1.419-5.066,4.252-6.763
			c2.836-1.692,6.613-2.54,11.327-2.54c4.678,0,8.076,0.918,10.203,2.758h0.132V59.513h5.449V84.695z M643.083,77.005v-2.511
			c0-1.373-0.905-2.534-2.722-3.485c-1.815-0.953-4.118-1.431-6.91-1.431c-3.322,0-5.936,0.609-7.84,1.828
			c-1.905,1.218-2.861,2.901-2.861,5.05c0,1.962,0.918,3.507,2.74,4.646c1.83,1.133,4.284,1.702,7.36,1.702
			c3.037,0,5.498-0.551,7.392-1.646C642.141,80.06,643.083,78.678,643.083,77.005z"/>
	</g>
</g>
<g id="Layer_3">
</g>
<g id="Layer_1">
	<g>
		<g>
			<g>
				<path fill-rule="evenodd" clip-rule="evenodd" fill="#FFFFFF" d="M77.325,15.498l25.548,15.382
					c1.527,0.919,2.777,3.374,2.777,5.455V86.82c0,2.081-1.25,3.031-2.777,2.111L77.325,73.551c-1.528-0.92-2.777-3.375-2.777-5.455
					V17.61C74.548,15.528,75.797,14.578,77.325,15.498z"/>
				<path fill-rule="evenodd" clip-rule="evenodd" fill="#FFFFFF" d="M140.494,15.841l-25.549,15.382
					c-1.527,0.919-2.777,3.374-2.777,5.456v50.485c0,2.08,1.25,3.031,2.777,2.111l25.549-15.381c1.527-0.92,2.777-3.375,2.777-5.456
					V17.953C143.271,15.871,142.021,14.921,140.494,15.841z"/>
			</g>
			<path fill-rule="evenodd" clip-rule="evenodd" fill="#FFFFFF" d="M70.495,24.087v44.008c0,3.331,1.848,7.187,4.739,8.928
				L96.558,89.86l-28.325-9.993c-1.681-0.594-2.777-3.375-2.777-5.456V23.926c0-2.106,1.858-2.548,3.139-2.231
				C69.834,22.002,70.495,23.018,70.495,24.087z"/>
			<path fill-rule="evenodd" clip-rule="evenodd" fill="#FFFFFF" d="M61.404,32.922v41.489c0,3.33,1.549,7.825,4.739,8.928
				l22.366,7.728l-23.851-4.202c-4.373-0.77-9.099-1.535-9.099-7.372v-47.6C55.559,25.088,61.404,23.731,61.404,32.922z"/>
			<path fill-rule="evenodd" clip-rule="evenodd" fill="#FFFFFF" d="M147.152,24.087v44.008c0,3.331-1.848,7.187-4.74,8.928
				L121.089,89.86l28.326-9.993c1.681-0.594,2.776-3.375,2.776-5.456V23.926c0-2.106-1.858-2.548-3.139-2.231
				C147.814,22.002,147.152,23.018,147.152,24.087z"/>
			<path fill-rule="evenodd" clip-rule="evenodd" fill="#FFFFFF" d="M156.244,32.922v41.489c0,3.33-1.549,7.825-4.74,8.928
				l-22.365,7.728l23.852-4.202c4.372-0.77,9.098-1.535,9.098-7.372v-47.6C162.088,25.088,156.244,23.731,156.244,32.922z"/>
		</g>
		<path fill-rule="evenodd" clip-rule="evenodd" fill="#50412F" d="M78.797,27.952c-0.286-0.173-0.377-0.546-0.204-0.831
			c0.172-0.285,0.545-0.377,0.83-0.204l21.955,13.322c0.285,0.173,0.377,0.545,0.203,0.831c-0.172,0.286-0.545,0.377-0.83,0.204
			L78.797,27.952L78.797,27.952z M137.752,27.952c0.287-0.173,0.377-0.546,0.204-0.831s-0.545-0.377-0.831-0.204l-21.954,13.322
			c-0.285,0.173-0.378,0.545-0.204,0.831s0.545,0.377,0.832,0.204L137.752,27.952L137.752,27.952z M137.752,38.95l-21.953,13.322
			c-0.287,0.173-0.658,0.082-0.832-0.204c-0.174-0.285-0.081-0.657,0.204-0.83l21.954-13.323c0.286-0.172,0.658-0.081,0.831,0.204
			C138.129,38.405,138.039,38.777,137.752,38.95L137.752,38.95z M137.752,49.948c0.287-0.173,0.377-0.545,0.204-0.83
			c-0.173-0.286-0.545-0.378-0.831-0.205l-21.954,13.322c-0.285,0.173-0.378,0.546-0.204,0.832c0.174,0.285,0.545,0.376,0.832,0.203
			L137.752,49.948L137.752,49.948z M137.752,60.947l-21.953,13.321c-0.287,0.174-0.658,0.082-0.832-0.204
			c-0.174-0.285-0.081-0.657,0.204-0.83l21.954-13.322c0.286-0.173,0.658-0.082,0.831,0.204
			C138.129,60.401,138.039,60.773,137.752,60.947L137.752,60.947z M78.797,60.947c-0.286-0.174-0.377-0.546-0.204-0.831
			c0.172-0.286,0.545-0.377,0.83-0.204l21.955,13.322c0.285,0.173,0.377,0.545,0.203,0.83c-0.172,0.286-0.545,0.378-0.83,0.204
			L78.797,60.947L78.797,60.947z M78.797,49.948l21.955,13.322c0.285,0.173,0.658,0.082,0.83-0.203
			c0.174-0.286,0.082-0.659-0.203-0.832L79.424,48.913c-0.285-0.173-0.658-0.081-0.83,0.205
			C78.42,49.403,78.512,49.775,78.797,49.948L78.797,49.948z M78.797,38.95l21.955,13.322c0.285,0.173,0.658,0.082,0.83-0.204
			c0.174-0.285,0.082-0.657-0.203-0.83L79.424,37.915c-0.285-0.172-0.658-0.081-0.83,0.204C78.42,38.405,78.512,38.777,78.797,38.95
			z"/>
	</g>
</g>
</svg>
